<?xml version="1.0" encoding="utf-8"?>
<!-- Generator: Adobe Illustrator 24.3.0, SVG Export Plug-In . SVG Version: 6.00 Build 0)  -->
<svg version="1.1" id="Calque_1" xmlns="http://www.w3.org/2000/svg" xmlns:xlink="http://www.w3.org/1999/xlink" x="0px" y="0px"
	 viewBox="0 0 1024 1024" style="enable-background:new 0 0 1024 1024;" xml:space="preserve">
<style type="text/css">
	.st0{fill:#339970;}
</style>
<g id="icomoon-ignore">
</g>
<path id="Tracé_240" class="st0" d="M532.1,415.5c-6.9-0.2-13.8,1.1-20.1,4c-5,2.4-9.5,5.8-13.1,10.1c-4,6.9-6.8,14.4-8.5,22.1
	c-3.1,20-4.3,40.2-3.5,60.3c-0.7,19.8,0.5,39.7,3.5,59.3c1.7,7.8,4.6,15.2,8.5,22.1c4.1,3.9,8.6,7.3,13.6,10.1
	c12.2,6.7,27,6.7,39.2,0c4.8-2.6,9-6,12.6-10.1c4.6-6.6,7.7-14.2,9.1-22.1c2.6-19.7,3.7-39.5,3-59.3c0.7-20.2-0.4-40.3-3-60.3
	c-1.4-7.9-4.5-15.5-9.1-22.1c-3.5-4-7.8-7.2-12.6-9.6C545.7,416.9,538.9,415.3,532.1,415.5z M512,0c-68.4-0.4-136.2,13.3-199.2,40.2
	C189.9,92.1,92.1,189.9,40.2,312.8C13.3,375.8-0.4,443.6,0,512c-0.4,68.4,13.3,136.2,40.2,199.2c51.8,122.9,149.7,220.7,272.6,272.6
	c62.9,26.9,130.7,40.6,199.2,40.2c68.4,0.4,136.2-13.3,199.2-40.2c122.9-51.8,220.7-149.7,272.6-272.6
	c26.9-62.9,40.6-130.7,40.2-199.2c0.4-68.4-13.3-136.2-40.2-199.2C931.9,189.9,834.1,92.1,711.2,40.3C648.2,13.3,580.4-0.4,512,0z
	 M348,679h-71.4L169,511v168H87.5V345h71.4l107.6,168V345H348V679z M624.7,644.8c-11.5,11.7-25.2,21.1-40.2,27.7
	c-16.6,6.7-34.4,10-52.3,9.6c-18.2,0.5-36.4-2.8-53.3-9.6c-14.8-6.4-28.2-15.8-39.2-27.7c-16.6-15.1-27.3-35.6-30.2-57.8
	c-2.9-24.9-4.2-49.9-4-74.9c-0.2-25,1.2-50.1,4-74.9c2.9-22.2,13.6-42.7,30.2-57.8c38.9-36.4,95.3-47.1,144.8-27.7
	c15.1,6.6,28.7,16,40.2,27.7c16.1,15.4,26.5,35.8,29.7,57.8c3.2,24.8,4.7,49.9,4.5,74.9c0.2,25.1-1.3,50.1-4.5,74.9
	C651.2,609,640.7,629.4,624.7,644.8L624.7,644.8z M855,418.5V679h-82.5V418.5H691V345h245.4v73.4L855,418.5z"/>
</svg>
