<?xml version="1.0" encoding="utf-8"?>
<!-- Generator: Adobe Illustrator 24.3.0, SVG Export Plug-In . SVG Version: 6.00 Build 0)  -->
<svg version="1.1" id="Calque_1" xmlns="http://www.w3.org/2000/svg" xmlns:xlink="http://www.w3.org/1999/xlink" x="0px" y="0px"
	 viewBox="0 0 1216 1024" style="enable-background:new 0 0 1216 1024;" xml:space="preserve">
<style type="text/css">
	.st0{fill:#FFFFFF;}
</style>
<g id="icomoon-ignore">
</g>
<path class="st0" d="M1170.9,43.3L1170.9,43.3c0,0-21.6-35.3-74.7-41.5c0,0-67.2-12.9-187.1,31.1c-6.6,2.5-12,5-16.6,7.5
	c-162.6,68.9-251.4,225.6-284.1,294.9c-32.8-69.3-121.5-226.1-284.1-294.9c-4.1-2.5-10-5-16.6-7.5C188.2-11.4,120.6,1.9,120.6,1.9
	C67.5,8.1,45.5,42.9,45.5,42.9l0,0C16.1,81.1-3,152.4,8.6,281c7.9,90,10.8,261.3,207,264.2l-0.4,0.8l22,1.2
	c8.3,0.4,11.6,10.8,5.4,15.8l-34,28.6h0.4c-62.2,55.6-100.4,151.4-24.1,315.2c51,110.3,200.3,240.6,423.1-116.6
	c222.7,357.1,371.7,226.5,423.1,116.6c76.3-163.8,38.2-259.7-24.1-315.2h0.4l-34-28.6c-6.2-5.4-2.9-15.3,5.4-15.8l22-1.2l-0.4-0.8
	c196.2-2.9,199.1-174.2,207-264.2C1219,153.3,1200.3,81.5,1170.9,43.3L1170.9,43.3z"/>
</svg>
