<?xml version="1.0" encoding="utf-8"?>
<!-- Generator: Adobe Illustrator 24.3.0, SVG Export Plug-In . SVG Version: 6.00 Build 0)  -->
<svg version="1.1" id="Calque_1" xmlns="http://www.w3.org/2000/svg" xmlns:xlink="http://www.w3.org/1999/xlink" x="0px" y="0px"
	 viewBox="0 0 1024 1024" style="enable-background:new 0 0 1024 1024;" xml:space="preserve">
<style type="text/css">
	.st0{fill:#FFFFFF;}
</style>
<g id="icomoon-ignore">
</g>
<path class="st0" d="M512,0c69.3,0,135.6,13.5,198.9,40.6S828.6,104,874.3,149.7s82.1,100.2,109.1,163.4S1024,442.7,1024,512
	c0,69-13.4,135-40.3,198.3c-26.9,63.2-63.1,117.7-108.9,163.4c-45.7,45.7-100.2,82.2-163.4,109.4c-63.2,27.2-129.7,40.9-199.4,40.9
	c-69.7,0-136.2-13.5-199.4-40.6S195,919.9,149.4,874S67.6,773.6,40.6,710.6S0,581.3,0,512s13.5-135.6,40.6-198.9
	S104,195.4,149.7,149.7S249.9,67.6,313.1,40.6S442.7,0,512,0L512,0z M865.7,772c56.8-78.1,85.1-164.8,85.1-260
	c0-59.4-11.6-116.2-34.9-170.3c-23.2-54.1-54.5-100.8-93.7-140s-85.9-70.5-140-93.7S571.4,73.1,512,73.1S395.8,84.8,341.7,108
	s-100.8,54.5-140,93.7s-70.5,85.9-93.7,140S73.1,452.6,73.1,512c0,95.2,28.4,181.9,85.1,260c25.1-124.6,83.4-186.9,174.9-186.9
	c49.9,48.8,109.5,73.1,178.9,73.1s129-24.4,178.9-73.1C782.3,585.1,840.6,647.4,865.7,772L865.7,772z M731.4,402.3
	c0-60.6-21.4-112.3-64.3-155.1s-94.6-64.3-155.1-64.3c-60.6,0-112.3,21.4-155.1,64.3s-64.3,94.6-64.3,155.1s21.4,112.3,64.3,155.1
	s94.6,64.3,155.1,64.3s112.3-21.4,155.1-64.3S731.4,462.9,731.4,402.3L731.4,402.3z"/>
</svg>
